<svg height="280" width="330" xmlns="http://www.w3.org/2000/svg"><path d="m225 10v30l-10-10-50 30-10-10-30 30-30-30-20 20-10-10-25 15 45-45 50 10 20-20 30 10z" fill="#00f" stroke="#00f"/><path d="m265 50 15 70-20 5 25 45q22.5 7.5 15-15l20-10-35 55q-22.5 7.5-15-15l10-10-20-20v-40l-40-40 15-15q15 25 30-10z" fill="#00f" stroke="#00f"/><path d="m35 120-10 20z" fill="#00f" stroke="#00f"/><path d="m105 120 25 5-25 5z" fill="#00f" stroke="#00f"/><path d="m155 150 20 30z" fill="#00f" stroke="#00f"/><path d="m0 0 180 5-75 15-50-10q-40.5 19.5-45 75l20 30-20 35 45-30q27.5 12.5 5 25-7.5 22.5 15 15l20-30q61.2 13.7 85 65l-25-15-15 5 25 35q-37.5-7.5-45 15l40 10-20 35h-140z" opacity="0" stroke="#000"/><path d="m235 0h95v70q-30-12.5-20 25l-15 25q-5-75-50-110z" opacity="0" stroke="#000"/><path d="m235 130q26.3-8.3 15 25l-50 35-20-45z" opacity="0" stroke="#000"/><path d="m325 150 5 130-170-5 45-45 10 10 50-40 5 15-20 30 50-40z" opacity="0" stroke="#000"/><path d="m240 180 20 5-40 30z" opacity="0" stroke="#000"/><path d="m175 90v30q-30-15 0-30z" fill="#0ff" stroke="#0ff"/><path d="m195 100 25 5-25 5z" fill="#0ff" stroke="#0ff"/><path d="m265 140 10 20z" fill="#0ff" stroke="#0ff"/><path d="m95 20 10 20h60l20-20 45 5-25 25-30-10-35 35 30 10-35 35-65-5 70-30-55-35-30 30-15-15 50-30z" fill="#008080" stroke="#008080"/><path d="m255 50-20 30-10-10-20 20-25-5 45-25 10 10z" fill="#008080" stroke="#008080"/><path d="m225 90 25 15-25 15z" fill="#008080" stroke="#008080"/><path d="m175 100 10 20z" fill="#008080" stroke="#008080"/><path d="m315 110-10 20z" fill="#008080" stroke="#008080"/><path d="m165 250-10 20z" fill="#008080" stroke="#008080"/><g fill="#0f0" stroke="#0f0"><path d="m185 10 35 5-35 5z"/><path d="m50 20 40 5-50 40q-7.5 22.5 15 15l15-5 10 30-35 5q-30-5-25-45l30-15z"/><path d="m230 20 30 15q-37.5 32.5-105 35v-10l75-20z"/><path d="m85 60 55 25-35 15-5-30z"/><path d="m255 70 15 15-10 30 15 25-35-55z"/><path d="m195 90 35 15-35 15q-30-15 0-30zm0 10v10l25-5z"/><path d="m315 130-30 40z"/><path d="m155 140 20 30z"/><path d="m195 210-10 20z"/></g><path d="m55 10-5 15q11.3 33.3-15 25l-15 35q30.4 44.6 105 45l65 65q5 40-25 45l-45-5 50-5-30-45 40 20-55-65-40-10-20 30-5-15q22.5-12.5-5-25l-35 15-5 15-5-15 20-30-20-40z" stroke="#000"/><path d="m245 40 15 5q-37.5 32.5-105 35v-10q60.4.4 90-30z" stroke="#000"/><path d="m70 70q45-15 30 30-45 15-30-30z" stroke="#000"/><path d="m315 80 5 15-25 45-5-15z" stroke="#000"/><path d="m155 120 70 10 20-10q32.1 27.2 25 80l30-15 25-45-5 15q-15.4 64.6-65 95l25-35-15-15-50 40-10-10-50 50-15-5 95-85-20 40 45-35q8.3-26.2-25-15v-10l25-5-10-35-65 10-30-10z" stroke="#000"/><path d="m185 0q68.7-8.7 85 35l20 80q-22.5 12.5 5 25l15-5q-30.8 17.5-15 35l-25-45 10-10q.3-65.3-35-95l-60-10q-23.3 26.7-80 20l-45-15 35-5 50 10z" fill="#000080" stroke="#000080"/><path d="m145 70 20 20 20-20 35 15-60 20 5 15-15 5 25 5 70-20v10l-65 10 20 60 35-10-20 40 40-30-30 40-20-10-25 15q35-15 10-30l-10-20 10-10-35-35q-12.5 22.5-25-5l-15-25-15 5 50-30z" fill="#000080" stroke="#000080"/><path d="m315 70q30-5 15 65h-10l-10-30 10-20z" fill="#000080" stroke="#000080"/><path d="m45 120-20 30z" fill="#000080" stroke="#000080"/><path d="m85 130 5 15-20 10z" fill="#000080" stroke="#000080"/><path d="m155 180 20 30z" fill="#000080" stroke="#000080"/><path d="m275 210-20 30z" fill="#000080" stroke="#000080"/><path d="m135 220 35 5-35 5z" fill="#000080" stroke="#000080"/><path d="m165 240-20 30z" fill="#000080" stroke="#000080"/></svg>